RBDS08runT45_grf
version=1
nRows=21
nColumns=19
inDegrees=no
endheader
time	ground_force_r_vx	ground_force_r_vy	ground_force_r_vz	ground_force_r_px	ground_force_r_py	ground_force_r_pz	ground_force_r_mx	ground_force_r_my	ground_force_r_mz	ground_force_l_vx	ground_force_l_vy	ground_force_l_vz	ground_force_l_px	ground_force_l_py	ground_force_l_pz	ground_force_l_mx	ground_force_l_my	ground_force_l_mz
      0.00000000	    125.76963250	   1670.85139747	     -1.06623099	      1.98566983	      0.00000000	      1.00290069	      0.00000000	      1.61446402	      0.00000000	      0.00000000	      0.00000000	      0.00000000	      0.00000000	      0.00000000	      0.00000000	      0.00000000	      0.00000000	      0.00000000
      0.00100000	    127.18576043	   1645.87202857	      0.37323475	      1.98326079	      0.00000000	      1.00287359	      0.00000000	      1.43828311	      0.00000000	      0.00000000	      0.00000000	      0.00000000	      0.00000000	      0.00000000	      0.00000000	      0.00000000	      0.00000000	      0.00000000
      0.00200000	    128.60188836	   1620.89265968	      1.81270050	      1.98085174	      0.00000000	      1.00284648	      0.00000000	      1.26210221	      0.00000000	      0.00000000	      0.00000000	      0.00000000	      0.00000000	      0.00000000	      0.00000000	      0.00000000	      0.00000000	      0.00000000
      0.00300000	    130.01801630	   1595.91329079	      3.25216624	      1.97844269	      0.00000000	      1.00281938	      0.00000000	      1.08592130	      0.00000000	      0.00000000	      0.00000000	      0.00000000	      0.00000000	      0.00000000	      0.00000000	      0.00000000	      0.00000000	      0.00000000
      0.00400000	    131.43218936	   1570.96649255	      4.68040176	      1.97600613	      0.00000000	      1.00278404	      0.00000000	      0.92051242	      0.00000000	      0.00000000	      0.00000000	      0.00000000	      0.00000000	      0.00000000	      0.00000000	      0.00000000	      0.00000000	      0.00000000
      0.00500000	    132.84538498	   1546.03597965	      6.10302218	      1.97355581	      0.00000000	      1.00274457	      0.00000000	      0.76048956	      0.00000000	      0.00000000	      0.00000000	      0.00000000	      0.00000000	      0.00000000	      0.00000000	      0.00000000	      0.00000000	      0.00000000
      0.00600000	    134.25858061	   1521.10546675	      7.52564259	      1.97110549	      0.00000000	      1.00270511	      0.00000000	      0.60046669	      0.00000000	      0.00000000	      0.00000000	      0.00000000	      0.00000000	      0.00000000	      0.00000000	      0.00000000	      0.00000000	      0.00000000
      0.00700000	    135.67406709	   1496.23420988	      8.93753602	      1.96863898	      0.00000000	      1.00266103	      0.00000000	      0.44606079	      0.00000000	      0.00000000	      0.00000000	      0.00000000	      0.00000000	      0.00000000	      0.00000000	      0.00000000	      0.00000000	      0.00000000
      0.00800000	    137.09413525	   1471.48146508	     10.32797547	      1.96614010	      0.00000000	      1.00260774	      0.00000000	      0.30288881	      0.00000000	      0.00000000	      0.00000000	      0.00000000	      0.00000000	      0.00000000	      0.00000000	      0.00000000	      0.00000000	      0.00000000
      0.00900000	    138.51420342	   1446.72872027	     11.71841493	      1.96364123	      0.00000000	      1.00255444	      0.00000000	      0.15971684	      0.00000000	      0.00000000	      0.00000000	      0.00000000	      0.00000000	      0.00000000	      0.00000000	      0.00000000	      0.00000000	      0.00000000
      0.01000000	    139.93427159	   1421.97597546	     13.10885438	      1.96114235	      0.00000000	      1.00250114	     -0.00000000	      0.01654486	      0.00000000	      0.00000000	      0.00000000	      0.00000000	      0.00000000	      0.00000000	      0.00000000	      0.00000000	      0.00000000	      0.00000000
      0.01100000	    141.36452363	   1397.51552215	     14.45102424	      1.95858933	      0.00000000	      1.00243343	     -0.00000000	     -0.10932727	      0.00000000	      0.00000000	      0.00000000	      0.00000000	      0.00000000	      0.00000000	      0.00000000	      0.00000000	      0.00000000	      0.00000000
      0.01200000	    142.79477567	   1373.05506884	     15.79319410	      1.95603630	      0.00000000	      1.00236571	     -0.00000000	     -0.23519941	      0.00000000	      0.00000000	      0.00000000	      0.00000000	      0.00000000	      0.00000000	      0.00000000	      0.00000000	      0.00000000	      0.00000000
      0.01300000	    144.22502771	   1348.59461553	     17.13536396	      1.95348327	      0.00000000	      1.00229800	     -0.00000000	     -0.36107155	      0.00000000	      0.00000000	      0.00000000	      0.00000000	      0.00000000	      0.00000000	      0.00000000	      0.00000000	      0.00000000	      0.00000000
      0.01400000	    145.65915191	   1324.39498848	     18.43427113	      1.95089218	      0.00000000	      1.00222097	     -0.00000000	     -0.47530979	      0.00000000	      0.00000000	      0.00000000	      0.00000000	      0.00000000	      0.00000000	      0.00000000	      0.00000000	      0.00000000	      0.00000000
      0.01500000	    147.09521220	   1300.32577456	     19.71154696	      1.94828205	      0.00000000	      1.00213928	     -0.00000000	     -0.58373108	      0.00000000	      0.00000000	      0.00000000	      0.00000000	      0.00000000	      0.00000000	      0.00000000	      0.00000000	      0.00000000	      0.00000000
      0.01600000	    148.53127249	   1276.25656064	     20.98882279	      1.94567192	      0.00000000	      1.00205759	     -0.00000000	     -0.69215237	      0.00000000	      0.00000000	      0.00000000	      0.00000000	      0.00000000	      0.00000000	      0.00000000	      0.00000000	      0.00000000	      0.00000000
      0.01700000	    149.96505131	   1252.34542216	     22.23885124	      1.94304292	      0.00000000	      1.00197176	     -0.00000000	     -0.79481924	      0.00000000	      0.00000000	      0.00000000	      0.00000000	      0.00000000	      0.00000000	      0.00000000	      0.00000000	      0.00000000	      0.00000000
      0.01800000	    151.39426722	   1228.75043455	     23.43438494	      1.94037617	      0.00000000	      1.00187764	     -0.00000000	     -0.88597728	      0.00000000	      0.00000000	      0.00000000	      0.00000000	      0.00000000	      0.00000000	      0.00000000	      0.00000000	      0.00000000	      0.00000000
      0.01900000	    152.82348313	   1205.15544694	     24.62991864	      1.93770942	      0.00000000	      1.00178353	     -0.00000000	     -0.97713531	      0.00000000	      0.00000000	      0.00000000	      0.00000000	      0.00000000	      0.00000000	      0.00000000	      0.00000000	      0.00000000	      0.00000000
      0.02000000	    154.25269904	   1181.56045933	     25.82545234	      1.93504267	      0.00000000	      1.00168942	     -0.00000000	     -1.06829335	      0.00000000	      0.00000000	      0.00000000	      0.00000000	      0.00000000	      0.00000000	      0.00000000	      0.00000000	      0.00000000	      0.00000000
